{
    "accessors" : [
        {
            "bufferView" : 0, 
            "componentType" : 5121, 
            "count" : 6, 
            "max" : [
                3
            ], 
            "min" : [
                0
            ], 
            "type" : "SCALAR"
        }, 
        {
            "bufferView" : 1, 
            "componentType" : 5126, 
            "count" : 4, 
            "max" : [
                1.0, 
                0.0, 
                1.0
            ], 
            "min" : [
                -1.0, 
                0.0, 
                -1.0
            ], 
            "type" : "VEC3"
        }, 
        {
            "bufferView" : 2, 
            "componentType" : 5126, 
            "count" : 4, 
            "max" : [
                0.0, 
                1.0, 
                -0.0
            ], 
            "min" : [
                0.0, 
                1.0, 
                -0.0
            ], 
            "type" : "VEC3"
        }, 
        {
            "bufferView" : 3, 
            "componentType" : 5121, 
            "count" : 36, 
            "max" : [
                23
            ], 
            "min" : [
                0
            ], 
            "type" : "SCALAR"
        }, 
        {
            "bufferView" : 4, 
            "componentType" : 5126, 
            "count" : 24, 
            "max" : [
                12.0, 
                126.0, 
                12.0
            ], 
            "min" : [
                -12.0, 
                -2.7798854764068872e-15, 
                -12.0
            ], 
            "type" : "VEC3"
        }, 
        {
            "bufferView" : 5, 
            "componentType" : 5126, 
            "count" : 24, 
            "max" : [
                0.9999999403953552, 
                1.0, 
                0.9999999403953552
            ], 
            "min" : [
                -0.9999999403953552, 
                -1.0, 
                -0.9999999403953552
            ], 
            "type" : "VEC3"
        }, 
        {
            "bufferView" : 6, 
            "componentType" : 5126, 
            "count" : 24, 
            "max" : [
                1.0, 
                8.646745259632393e-17, 
                1.0, 
                1.0
            ], 
            "min" : [
                -1.0, 
                -2.4448399926768616e-07, 
                -1.0, 
                1.0
            ], 
            "type" : "VEC4"
        }, 
        {
            "bufferView" : 7, 
            "componentType" : 5126, 
            "count" : 24, 
            "max" : [
                0.9942793846130371, 
                3.3114469051361084
            ], 
            "min" : [
                0.0016121268272399902, 
                -1.8895719051361084
            ], 
            "type" : "VEC2"
        }, 
        {
            "bufferView" : 8, 
            "componentType" : 5121, 
            "count" : 9, 
            "max" : [
                8
            ], 
            "min" : [
                0
            ], 
            "type" : "SCALAR"
        }, 
        {
            "bufferView" : 9, 
            "componentType" : 5126, 
            "count" : 9, 
            "max" : [
                8.887499809265137, 
                26.25, 
                9.010936737060547
            ], 
            "min" : [
                -4.884981308350689e-15, 
                -4.44089183380283e-16, 
                -9.010936737060547
            ], 
            "type" : "VEC3"
        }, 
        {
            "bufferView" : 10, 
            "componentType" : 5126, 
            "count" : 9, 
            "max" : [
                0.692141592502594, 
                1.0, 
                0.6826602816581726
            ], 
            "min" : [
                -0.0, 
                -0.2343393713235855, 
                -0.6826602816581726
            ], 
            "type" : "VEC3"
        }, 
        {
            "bufferView" : 11, 
            "componentType" : 5126, 
            "count" : 9, 
            "max" : [
                0.9998421669006348, 
                0.20415747165679932, 
                0.6596379280090332, 
                1.0
            ], 
            "min" : [
                -0.7216736674308777, 
                -0.20991668105125427, 
                -0.7306474447250366, 
                1.0
            ], 
            "type" : "VEC4"
        }, 
        {
            "bufferView" : 12, 
            "componentType" : 5126, 
            "count" : 9, 
            "max" : [
                0.9916736483573914, 
                0.9915993362665176
            ], 
            "min" : [
                0.007917286828160286, 
                0.0047740936279296875
            ], 
            "type" : "VEC2"
        }, 
        {
            "bufferView" : 13, 
            "componentType" : 5121, 
            "count" : 12, 
            "max" : [
                7
            ], 
            "min" : [
                0
            ], 
            "type" : "SCALAR"
        }, 
        {
            "bufferView" : 14, 
            "componentType" : 5126, 
            "count" : 8, 
            "max" : [
                0.7166145443916321, 
                2.8520712852478027, 
                0.7166145443916321
            ], 
            "min" : [
                -0.7166145443916321, 
                0.0, 
                -0.7166145443916321
            ], 
            "type" : "VEC3"
        }, 
        {
            "bufferView" : 15, 
            "componentType" : 5126, 
            "count" : 8, 
            "max" : [
                -0.0, 
                0.0, 
                -0.0
            ], 
            "min" : [
                -1.0, 
                -0.9999999403953552, 
                -0.0
            ], 
            "type" : "VEC3"
        }, 
        {
            "bufferView" : 16, 
            "componentType" : 5126, 
            "count" : 8, 
            "max" : [
                1.0, 
                0.0, 
                -0.0, 
                1.0
            ], 
            "min" : [
                0.0, 
                -1.2033196128413692e-07, 
                -1.0, 
                1.0
            ], 
            "type" : "VEC4"
        }, 
        {
            "bufferView" : 17, 
            "componentType" : 5126, 
            "count" : 8, 
            "max" : [
                0.9942793846130371, 
                3.3114469051361084
            ], 
            "min" : [
                0.0, 
                -1.8895719051361084
            ], 
            "type" : "VEC2"
        }
    ], 
    "asset" : {
        "generator" : "Khronos Blender glTF 2.0 exporter", 
        "version" : "2.0"
    }, 
    "bufferViews" : [
        {
            "buffer" : 0, 
            "byteLength" : 6, 
            "byteOffset" : 0, 
            "target" : 34963
        }, 
        {
            "buffer" : 0, 
            "byteLength" : 48, 
            "byteOffset" : 8, 
            "target" : 34962
        }, 
        {
            "buffer" : 0, 
            "byteLength" : 48, 
            "byteOffset" : 56, 
            "target" : 34962
        }, 
        {
            "buffer" : 0, 
            "byteLength" : 36, 
            "byteOffset" : 104, 
            "target" : 34963
        }, 
        {
            "buffer" : 0, 
            "byteLength" : 288, 
            "byteOffset" : 140, 
            "target" : 34962
        }, 
        {
            "buffer" : 0, 
            "byteLength" : 288, 
            "byteOffset" : 428, 
            "target" : 34962
        }, 
        {
            "buffer" : 0, 
            "byteLength" : 384, 
            "byteOffset" : 716, 
            "target" : 34962
        }, 
        {
            "buffer" : 0, 
            "byteLength" : 192, 
            "byteOffset" : 1100, 
            "target" : 34962
        }, 
        {
            "buffer" : 0, 
            "byteLength" : 9, 
            "byteOffset" : 1292, 
            "target" : 34963
        }, 
        {
            "buffer" : 0, 
            "byteLength" : 108, 
            "byteOffset" : 1304, 
            "target" : 34962
        }, 
        {
            "buffer" : 0, 
            "byteLength" : 108, 
            "byteOffset" : 1412, 
            "target" : 34962
        }, 
        {
            "buffer" : 0, 
            "byteLength" : 144, 
            "byteOffset" : 1520, 
            "target" : 34962
        }, 
        {
            "buffer" : 0, 
            "byteLength" : 72, 
            "byteOffset" : 1664, 
            "target" : 34962
        }, 
        {
            "buffer" : 0, 
            "byteLength" : 12, 
            "byteOffset" : 1736, 
            "target" : 34963
        }, 
        {
            "buffer" : 0, 
            "byteLength" : 96, 
            "byteOffset" : 1748, 
            "target" : 34962
        }, 
        {
            "buffer" : 0, 
            "byteLength" : 96, 
            "byteOffset" : 1844, 
            "target" : 34962
        }, 
        {
            "buffer" : 0, 
            "byteLength" : 128, 
            "byteOffset" : 1940, 
            "target" : 34962
        }, 
        {
            "buffer" : 0, 
            "byteLength" : 64, 
            "byteOffset" : 2068, 
            "target" : 34962
        }
    ], 
    "buffers" : [
        {
            "byteLength" : 2132, 
            "uri" : "wall_sconce.bin"
        }
    ], 
    "images" : [
        {
            "uri" : "wall_sconce.png"
        }, 
        {
            "uri" : "column.png"
        }
    ], 
    "materials" : [
        {
            "emissiveFactor" : [
                0.4479779601097107, 
                0.4479779601097107, 
                0.4479779601097107
            ], 
            "emissiveTexture" : {
                "index" : 0
            }, 
            "name" : "material", 
            "pbrMetallicRoughness" : {
                "baseColorTexture" : {
                    "index" : 0
                }
            }
        }, 
        {
            "name" : "material.001", 
            "pbrMetallicRoughness" : {
                "baseColorTexture" : {
                    "index" : 1
                }
            }
        }
    ], 
    "meshes" : [
        {
            "name" : "Plane", 
            "primitives" : [
                {
                    "attributes" : {
                        "NORMAL" : 2, 
                        "POSITION" : 1
                    }, 
                    "indices" : 0
                }
            ]
        }, 
        {
            "name" : "ID2.001", 
            "primitives" : [
                {
                    "attributes" : {
                        "NORMAL" : 5, 
                        "POSITION" : 4, 
                        "TANGENT" : 6, 
                        "TEXCOORD_0" : 7
                    }, 
                    "indices" : 3, 
                    "material" : 1
                }
            ]
        }, 
        {
            "name" : "ID2", 
            "primitives" : [
                {
                    "attributes" : {
                        "NORMAL" : 10, 
                        "POSITION" : 9, 
                        "TANGENT" : 11, 
                        "TEXCOORD_0" : 12
                    }, 
                    "indices" : 8, 
                    "material" : 0
                }
            ]
        }, 
        {
            "name" : "Plane.001", 
            "primitives" : [
                {
                    "attributes" : {
                        "NORMAL" : 15, 
                        "POSITION" : 14, 
                        "TANGENT" : 16, 
                        "TEXCOORD_0" : 17
                    }, 
                    "indices" : 13
                }
            ]
        }
    ], 
    "nodes" : [
        {
            "mesh" : 1, 
            "name" : "col", 
            "scale" : [
                0.02539999783039093, 
                0.02539999783039093, 
                0.02539999783039093
            ], 
            "translation" : [
                -0.3089350759983063, 
                0.017212867736816406, 
                -0.004651373717933893
            ]
        }, 
        {
            "mesh" : 0, 
            "name" : "Plane"
        }, 
        {
            "mesh" : 2, 
            "name" : "sconce", 
            "scale" : [
                0.02539999783039093, 
                0.02539999783039093, 
                0.02539999783039093
            ], 
            "translation" : [
                0.0, 
                1.6438496112823486, 
                -0.0
            ]
        }, 
        {
            "mesh" : 3, 
            "name" : "shadow"
        }
    ], 
    "samplers" : [
        {}
    ], 
    "scene" : 0, 
    "scenes" : [
        {
            "name" : "Scene", 
            "nodes" : [
                1, 
                2, 
                0, 
                3
            ]
        }
    ], 
    "textures" : [
        {
            "sampler" : 0, 
            "source" : 0
        }, 
        {
            "sampler" : 0, 
            "source" : 1
        }
    ]
}
