{
    "accessors" : [
        {
            "bufferView" : 0, 
            "componentType" : 5121, 
            "count" : 252, 
            "max" : [
                135
            ], 
            "min" : [
                0
            ], 
            "type" : "SCALAR"
        }, 
        {
            "bufferView" : 1, 
            "componentType" : 5126, 
            "count" : 136, 
            "max" : [
                1200.0, 
                120.0, 
                -0.0
            ], 
            "min" : [
                0.0, 
                0.0, 
                -1200.0
            ], 
            "type" : "VEC3"
        }, 
        {
            "bufferView" : 2, 
            "componentType" : 5126, 
            "count" : 136, 
            "max" : [
                1.0, 
                1.0, 
                1.0
            ], 
            "min" : [
                -1.0, 
                -1.0, 
                -1.0
            ], 
            "type" : "VEC3"
        }
    ], 
    "asset" : {
        "generator" : "Khronos Blender glTF 2.0 exporter", 
        "version" : "2.0"
    }, 
    "bufferViews" : [
        {
            "buffer" : 0, 
            "byteLength" : 252, 
            "byteOffset" : 0, 
            "target" : 34963
        }, 
        {
            "buffer" : 0, 
            "byteLength" : 1632, 
            "byteOffset" : 252, 
            "target" : 34962
        }, 
        {
            "buffer" : 0, 
            "byteLength" : 1632, 
            "byteOffset" : 1884, 
            "target" : 34962
        }
    ], 
    "buffers" : [
        {
            "byteLength" : 3516, 
            "uri" : "grid_inter.bin"
        }
    ], 
    "materials" : [
        {
            "name" : "_0098_DodgerBlue_", 
            "pbrMetallicRoughness" : {
                "baseColorFactor" : [
                    0.11764705926179886, 
                    0.5647059082984924, 
                    1.0, 
                    1.0
                ], 
                "metallicFactor" : 0.0
            }
        }
    ], 
    "meshes" : [
        {
            "name" : "ID12", 
            "primitives" : [
                {
                    "attributes" : {
                        "NORMAL" : 2, 
                        "POSITION" : 1
                    }, 
                    "indices" : 0, 
                    "material" : 0
                }
            ]
        }
    ], 
    "nodes" : [
        {
            "mesh" : 0, 
            "name" : "COLLISION"
        }, 
        {
            "children" : [
                0
            ], 
            "name" : "ROOT", 
            "scale" : [
                0.02539999783039093, 
                0.02539999783039093, 
                0.02539999783039093
            ]
        }
    ], 
    "scene" : 0, 
    "scenes" : [
        {
            "name" : "Scene", 
            "nodes" : [
                1
            ]
        }
    ]
}
